<?xml version="1.0" standalone="no"?>
<!DOCTYPE svg PUBLIC "-//W3C//DTD SVG 20010904//EN"
 "http://www.w3.org/TR/2001/REC-SVG-20010904/DTD/svg10.dtd">
<svg version="1.0" xmlns="http://www.w3.org/2000/svg"
 width="800.000000pt" height="200.000000pt" viewBox="0 0 800.000000 200.000000"
 preserveAspectRatio="xMidYMid meet">

<g transform="translate(0.000000,200.000000) scale(0.100000,-0.100000)"
fill="#000000" stroke="none">
<path d="M1340 1859 c-36 -5 -102 -19 -145 -31 -80 -23 -80 -23 -155 -5 -223
53 -389 24 -512 -91 -84 -78 -146 -202 -188 -371 -10 -42 -34 -111 -54 -153
-47 -101 -66 -183 -66 -294 0 -249 128 -468 371 -629 148 -99 332 -166 507
-186 246 -27 457 53 638 243 108 113 220 306 255 443 18 71 20 98 14 240 -10
249 -42 397 -116 551 -78 160 -204 260 -359 284 -73 11 -97 11 -190 -1z m-664
-747 l18 -65 21 64 22 64 44 3 44 3 20 -68 19 -68 20 68 20 67 44 0 c37 0 44
-3 40 -17 -3 -10 -20 -66 -39 -125 l-34 -108 -51 0 -51 0 -17 63 -18 62 -19
-62 -20 -63 -49 0 -49 0 -39 123 c-43 133 -42 137 23 129 32 -4 34 -7 51 -70z
m542 35 c-3 -32 -3 -32 -66 -35 -74 -3 -75 -22 -1 -22 l49 0 0 -35 0 -35 -56
0 c-34 0 -53 -4 -49 -10 3 -5 33 -10 66 -10 l59 0 0 -35 0 -35 -105 0 c-77 0
-105 3 -106 13 -2 47 1 229 4 235 3 4 51 6 107 4 l101 -3 -3 -32z m249 11 c26
-25 30 -60 8 -78 -14 -12 -13 -15 5 -35 28 -30 26 -69 -6 -94 -23 -18 -41 -21
-125 -21 l-99 0 0 125 0 125 97 0 c86 0 99 -3 120 -22z m-359 -326 c4 -71 -15
-102 -63 -102 -38 0 -50 12 -37 36 6 11 11 13 16 5 16 -26 34 -10 38 34 3 43
2 45 -24 45 -17 0 -28 5 -28 13 0 23 12 28 55 25 l40 -3 3 -53z m64 -24 c2
-30 8 -43 18 -43 11 0 16 13 18 43 3 38 6 43 25 40 20 -3 22 -9 22 -58 l0 -55
-50 -3 c-60 -3 -75 12 -75 75 0 36 3 43 19 43 16 0 20 -8 23 -42z m296 30 c6
-6 12 -32 12 -59 0 -42 -3 -49 -19 -49 -16 0 -20 8 -23 43 -2 29 -8 42 -18 42
-10 0 -16 -13 -18 -42 -3 -34 -7 -43 -22 -43 -15 0 -19 9 -22 43 -2 29 -8 42
-18 42 -10 0 -16 -13 -18 -42 -3 -35 -7 -43 -23 -43 -17 0 -19 7 -19 60 l0 60
88 -1 c48 -1 93 -6 100 -11z m162 -20 c13 -25 13 -31 0 -55 -11 -20 -25 -29
-48 -31 -24 -2 -32 -8 -32 -23 0 -14 -7 -19 -25 -19 -25 0 -25 1 -25 79 l0 80
57 -2 c51 -2 59 -5 73 -29z"/>
<path d="M1340 1106 c0 -11 10 -16 31 -16 38 0 35 24 -4 28 -19 2 -27 -1 -27
-12z"/>
<path d="M1340 1011 c0 -17 6 -21 29 -21 17 0 33 5 36 11 9 14 4 18 -33 25
-28 6 -32 4 -32 -15z"/>
<path d="M1551 802 c-11 -20 2 -42 25 -42 15 0 25 25 18 45 -8 21 -31 19 -43
-3z"/>
<path d="M4090 1310 l0 -370 105 0 c98 0 105 1 105 20 0 25 1 25 43 0 77 -46
204 -32 279 30 105 87 126 278 44 397 -67 97 -214 137 -314 85 l-42 -22 0 115
0 115 -110 0 -110 0 0 -370z m374 -21 c47 -56 28 -156 -35 -178 -70 -24 -127
36 -116 122 11 84 100 117 151 56z"/>
<path d="M2394 1568 c13 -40 63 -198 112 -350 l89 -278 125 0 126 0 60 188 60
187 26 -85 c15 -47 40 -131 58 -188 l31 -103 125 3 126 3 50 155 c116 359 168
525 168 532 0 4 -49 8 -110 8 l-109 0 -11 -37 c-5 -21 -34 -112 -64 -203 l-53
-165 -27 90 c-15 50 -43 141 -62 203 l-35 112 -108 0 -107 0 -63 -196 c-34
-108 -65 -194 -67 -191 -3 3 -31 90 -63 193 l-57 189 -121 3 -122 3 23 -73z"/>
<path d="M5010 1600 l0 -40 125 0 125 0 0 -230 c0 -256 -6 -287 -59 -314 -58
-30 -109 -19 -167 36 -38 35 -62 34 -84 -5 -15 -28 -14 -29 28 -67 51 -45 119
-65 199 -57 76 8 123 35 153 88 25 44 25 46 28 337 l3 292 -175 0 -176 0 0
-40z"/>
<path d="M3711 1490 c-108 -23 -198 -100 -226 -193 -19 -64 -19 -100 1 -167
21 -70 98 -149 169 -174 116 -40 264 -27 348 31 l38 27 -59 59 -59 59 -31 -16
c-18 -9 -55 -16 -87 -16 -48 0 -60 4 -83 28 l-27 27 194 3 194 2 -5 73 c-6 87
-31 141 -89 191 -67 57 -185 85 -278 66z m134 -175 c14 -13 25 -29 25 -35 0
-6 -34 -10 -91 -10 -96 0 -98 1 -56 48 29 31 90 30 122 -3z"/>
<path d="M6298 1460 c-15 -4 -44 -18 -63 -30 l-35 -22 0 26 c0 24 -3 26 -45
26 l-45 0 0 -265 0 -265 49 0 50 0 3 179 c3 164 5 182 24 208 59 79 155 98
218 42 20 -17 40 -47 46 -67 5 -20 10 -110 10 -199 l0 -163 50 0 50 0 0 170
c0 187 3 201 60 255 28 27 38 30 95 30 56 0 67 -3 93 -28 42 -40 52 -92 52
-271 l0 -156 45 0 45 0 -1 193 c-1 191 -6 227 -39 274 -61 84 -247 96 -349 22
l-40 -28 -30 28 c-48 45 -166 64 -243 41z"/>
<path d="M7309 1457 c-20 -8 -50 -24 -68 -36 l-31 -22 0 30 c0 30 -1 31 -45
31 l-45 0 0 -366 0 -365 48 3 47 3 3 123 c1 67 5 122 8 122 3 0 18 -9 34 -20
64 -45 192 -49 277 -9 184 88 190 387 10 484 -61 34 -178 44 -238 22z m141
-72 c145 -41 176 -268 49 -352 -127 -84 -279 5 -279 162 0 89 58 175 128 191
15 3 32 7 37 9 10 3 23 1 65 -10z"/>
<path d="M5490 1270 c0 -198 7 -238 48 -283 64 -71 240 -85 323 -27 35 26 39
25 39 -5 0 -23 4 -25 45 -25 l45 0 0 265 0 265 -50 0 -50 0 0 -167 c0 -155 -2
-171 -23 -207 -30 -54 -67 -78 -124 -83 -66 -6 -111 19 -140 77 -21 41 -23 58
-23 212 l0 168 -45 0 -45 0 0 -190z"/>
<path d="M6240 674 c0 -17 23 -34 46 -34 22 0 59 28 50 37 -3 3 -12 -2 -21
-11 -21 -20 -34 -20 -57 1 -10 9 -18 12 -18 7z"/>
<path d="M2610 550 l0 -120 145 0 145 0 0 120 c0 73 -4 120 -10 120 -6 0 -10
-43 -10 -110 l0 -110 -55 0 -55 0 0 110 c0 67 -4 110 -10 110 -6 0 -10 -43
-10 -110 l0 -110 -60 0 -60 0 0 110 c0 67 -4 110 -10 110 -6 0 -10 -47 -10
-120z"/>
<path d="M3000 520 c0 -53 4 -90 10 -90 6 0 10 18 10 40 0 35 3 40 23 40 14
-1 33 -16 52 -40 35 -46 68 -56 36 -12 -11 16 -27 35 -36 42 -21 17 -20 21 21
68 21 25 30 42 22 42 -8 0 -27 -18 -44 -40 -18 -25 -37 -40 -51 -40 -20 0 -23
5 -23 40 0 22 -4 40 -10 40 -6 0 -10 -37 -10 -90z"/>
<path d="M3209 581 c-20 -20 -29 -39 -29 -61 0 -43 47 -90 90 -90 43 0 90 47
90 90 0 43 -47 90 -90 90 -22 0 -41 -9 -61 -29z m105 -7 c32 -32 28 -92 -8
-116 -21 -14 -66 -8 -86 12 -43 43 -11 120 49 120 16 0 37 -7 45 -16z"/>
<path d="M3430 566 c0 -69 -11 -108 -32 -113 -24 -7 -23 -23 2 -23 26 0 39 27
47 100 l6 60 43 0 44 0 0 -80 c0 -47 4 -80 10 -80 6 0 10 37 10 90 l0 90 -65
0 -65 0 0 -44z"/>
<path d="M3658 599 c-25 -14 -23 -33 1 -19 43 22 101 2 101 -36 0 -10 -13 -14
-49 -14 -32 0 -55 -6 -65 -16 -48 -48 23 -107 87 -73 16 9 22 9 25 0 2 -6 8
-11 13 -11 5 0 9 32 9 70 0 57 -4 74 -20 90 -22 22 -73 26 -102 9z m99 -94 c9
-25 -27 -56 -60 -53 -41 4 -59 34 -33 54 27 19 85 18 93 -1z"/>
<path d="M3974 598 c-50 -24 -57 -96 -15 -139 35 -35 78 -38 112 -8 21 18 21
20 4 13 -11 -4 -34 -9 -52 -12 -64 -9 -98 71 -50 116 24 23 71 30 82 12 3 -5
14 -10 23 -10 14 1 13 4 -7 20 -25 22 -63 25 -97 8z"/>
<path d="M4159 581 c-20 -20 -29 -39 -29 -61 0 -43 47 -90 90 -90 43 0 90 47
90 90 0 43 -47 90 -90 90 -22 0 -41 -9 -61 -29z m105 -7 c32 -32 28 -92 -8
-116 -21 -14 -66 -8 -86 12 -43 43 -11 120 49 120 16 0 37 -7 45 -16z"/>
<path d="M4368 603 c-35 -9 -17 -19 35 -18 46 0 52 -2 55 -22 3 -17 -3 -24
-25 -29 -45 -9 -50 -12 -22 -13 14 -1 34 -7 45 -15 15 -12 17 -18 8 -33 -9
-14 -24 -18 -70 -17 -51 1 -56 0 -39 -12 10 -8 35 -14 55 -14 64 0 103 48 65
80 -14 12 -14 15 1 31 12 13 13 22 5 37 -16 30 -59 39 -113 25z"/>
<path d="M4570 573 c0 -71 -12 -115 -32 -121 -12 -3 -18 -14 -18 -33 0 -16 5
-29 10 -29 6 0 10 9 10 20 0 18 7 20 85 20 78 0 85 -2 85 -20 0 -11 5 -20 10
-20 6 0 10 14 10 30 0 20 -5 30 -15 30 -12 0 -15 16 -15 80 l0 80 -65 0 -65 0
0 -37z m110 -53 l0 -70 -56 0 c-49 0 -55 2 -49 18 4 9 9 41 12 70 l6 52 43 0
44 0 0 -70z"/>
<path d="M4798 599 c-25 -14 -23 -33 1 -19 43 22 101 2 101 -36 0 -10 -13 -14
-49 -14 -32 0 -55 -6 -65 -16 -48 -48 23 -107 87 -73 16 9 22 9 25 0 2 -6 8
-11 13 -11 5 0 9 32 9 70 0 57 -4 74 -20 90 -22 22 -73 26 -102 9z m99 -94 c9
-25 -27 -56 -60 -53 -41 4 -59 34 -33 54 27 19 85 18 93 -1z"/>
<path d="M5000 520 c0 -53 4 -90 10 -90 6 0 10 18 10 40 l0 40 55 0 55 0 0
-40 c0 -29 4 -40 15 -40 12 0 15 17 15 90 0 73 -3 90 -15 90 -11 0 -15 -11
-15 -40 l0 -40 -55 0 -55 0 0 40 c0 22 -4 40 -10 40 -6 0 -10 -37 -10 -90z"/>
<path d="M5240 520 c0 -49 4 -90 8 -90 4 0 35 32 67 72 l60 71 3 -71 c4 -104
22 -89 22 18 0 50 -4 90 -9 90 -6 0 -36 -32 -68 -71 l-58 -70 -3 70 c-4 103
-22 88 -22 -19z"/>
<path d="M5510 603 c-42 -15 -51 -62 -19 -94 l21 -21 -21 -29 c-14 -19 -17
-29 -9 -29 7 0 22 14 33 30 15 23 28 30 53 30 29 0 32 -3 32 -30 0 -16 5 -30
10 -30 6 0 10 37 10 90 l0 90 -47 -1 c-27 0 -55 -3 -63 -6z m90 -53 l0 -40
-45 0 c-34 0 -47 5 -55 19 -13 25 -13 27 6 45 9 9 32 16 55 16 39 0 39 0 39
-40z"/>
<path d="M5809 581 c-20 -20 -29 -39 -29 -61 0 -42 47 -90 88 -90 16 0 40 9
53 21 21 18 21 20 4 13 -11 -4 -34 -9 -52 -12 -62 -8 -98 73 -53 118 21 21 74
27 85 10 3 -5 14 -10 23 -10 14 1 13 4 -7 20 -34 29 -77 26 -112 -9z"/>
<path d="M6008 599 c-25 -14 -23 -33 1 -19 43 22 101 2 101 -36 0 -10 -13 -14
-49 -14 -32 0 -55 -6 -65 -16 -48 -48 23 -107 87 -73 16 9 22 9 25 0 2 -6 8
-11 13 -11 5 0 9 32 9 70 0 57 -4 74 -20 90 -22 22 -73 26 -102 9z m99 -94 c9
-25 -27 -56 -60 -53 -41 4 -59 34 -33 54 27 19 85 18 93 -1z"/>
<path d="M6210 520 c0 -49 4 -90 8 -90 4 0 35 32 67 72 l60 71 3 -71 c4 -104
22 -89 22 18 0 50 -4 90 -9 90 -6 0 -36 -32 -68 -71 l-58 -70 -3 70 c-4 103
-22 88 -22 -19z"/>
<path d="M6410 600 c0 -5 16 -10 35 -10 l35 0 0 -80 c0 -47 4 -80 10 -80 6 0
10 33 10 80 l0 80 35 0 c19 0 35 5 35 10 0 6 -33 10 -80 10 -47 0 -80 -4 -80
-10z"/>
<path d="M6619 581 c-20 -20 -29 -39 -29 -61 0 -43 47 -90 90 -90 43 0 90 47
90 90 0 43 -47 90 -90 90 -22 0 -41 -9 -61 -29z m105 -7 c32 -32 28 -92 -8
-116 -21 -14 -66 -8 -86 12 -43 43 -11 120 49 120 16 0 37 -7 45 -16z"/>
<path d="M6840 520 l0 -90 55 0 c42 0 60 5 75 20 11 11 20 25 20 30 0 6 -9 19
-20 30 -11 11 -16 20 -11 20 5 0 13 10 17 22 10 33 -27 58 -87 58 l-49 0 0
-90z m110 55 c19 -23 -5 -45 -51 -45 -37 0 -39 2 -39 30 0 28 2 30 39 30 22 0
44 -6 51 -15z m5 -95 c0 -23 -4 -25 -47 -28 -48 -3 -48 -3 -48 28 0 31 0 31
48 28 43 -3 47 -5 47 -28z"/>
</g>
</svg>
